<svg width="146" height="200" viewBox="0 0 146 200" fill="none" xmlns="http://www.w3.org/2000/svg">
<path d="M49.5098 63.5815C49.1997 62.8793 48.6209 62.3604 47.8872 62.1346C39.2196 59.4668 0 50 0 50V89C0 89 39.7946 78.2689 47.9254 75.834C48.6325 75.6222 49.2118 75.1503 49.5448 74.4916C51.0452 71.5234 51.6316 68.3851 49.5098 63.5815Z" fill="#F4DDA8"/>
<path d="M96.3836 63.5815C96.6937 62.8793 97.2725 62.3604 98.0062 62.1346C106.674 59.4668 145.893 50 145.893 50V89C145.893 89 106.099 78.2689 97.9679 75.834C97.2609 75.6222 96.6816 75.1503 96.3486 74.4916C94.8482 71.5234 94.2618 68.3851 96.3836 63.5815Z" fill="#F4DDA8"/>
<path d="M13.2013 89.5195C11.5515 89.6055 10.6275 89.9767 9.56747 90.6332C9.22049 90.8481 9.05132 91.2571 9.14745 91.6537C12.046 103.614 26.8248 120.211 31 122C23.1885 111.259 16.8071 100.995 14.1833 90.2766C14.0723 89.8231 13.6675 89.4951 13.2013 89.5195Z" fill="#F4DDA8"/>
<path d="M14.703 49.4696C12.6066 49.317 10.0845 48.6127 8.58297 47.8387C8.22019 47.6517 8.04979 47.2544 8.14048 46.8564C10.8813 34.8301 24.1759 4.05983 65.2432 0.32235C65.8469 0.267406 65.9772 1.12773 65.3936 1.29161C28.5186 11.6464 18.3663 37.7032 15.6804 48.7339C15.5699 49.1875 15.1686 49.5034 14.703 49.4696Z" fill="#F4DDA8"/>
<path d="M130.797 49.4696C132.893 49.317 135.415 48.6127 136.917 47.8387C137.28 47.6517 137.45 47.2544 137.36 46.8564C134.619 34.8301 121.324 4.05983 80.2568 0.32235C79.6531 0.267406 79.5228 1.12773 80.1064 1.29161C116.981 11.6464 127.134 37.7032 129.82 48.7339C129.93 49.1875 130.331 49.5034 130.797 49.4696Z" fill="#F4DDA8"/>
<path d="M26.8489 52.6523C25.624 52.9159 24.7867 52.9455 23.8565 52.741C23.3609 52.632 23.0755 52.1305 23.1912 51.6365C26.0297 39.5225 37.2193 19.4562 67 13.5C62.5425 14.9859 31.5919 28.737 27.6065 51.8375C27.5377 52.236 27.2443 52.5673 26.8489 52.6523Z" fill="#F4DDA8"/>
<path d="M118.651 52.6523C119.876 52.9159 120.713 52.9455 121.644 52.741C122.139 52.632 122.425 52.1305 122.309 51.6365C119.47 39.5225 108.281 19.4562 78.5 13.5C82.9576 14.9859 113.908 28.737 117.894 51.8375C117.962 52.236 118.256 52.5673 118.651 52.6523Z" fill="#F4DDA8"/>
<path d="M34.9532 54.1217C34.0126 54.3001 33.6392 54.1781 33.2536 53.9487C32.8222 53.6921 32.6207 53.1469 32.7959 52.6765C37.55 39.9149 50.3585 26.4578 67 24.5C61.5519 25.6514 41.8759 34.8246 35.6734 53.4651C35.5637 53.7949 35.2947 54.057 34.9532 54.1217Z" fill="#F4DDA8"/>
<path d="M110.547 54.1217C111.487 54.3001 111.861 54.1781 112.246 53.9487C112.678 53.6921 112.879 53.1469 112.704 52.6765C107.95 39.9149 95.1416 26.4578 78.5 24.5C83.9481 25.6514 103.624 34.8246 109.827 53.4651C109.936 53.7949 110.205 54.057 110.547 54.1217Z" fill="#F4DDA8"/>
<path d="M41.905 49.5884C41.5 49.9345 41.5 49.5 41.5 49.5C47.5 37.5 54.5 33.5 60 31.5C54.019 35.4873 49.0317 37.4873 42.0666 49.3861C42.0232 49.4602 41.9703 49.5326 41.905 49.5884Z" fill="#F4DDA8"/>
<path d="M103.595 49.5884C104 49.9345 104 49.5 104 49.5C98 37.5 91 33.5 85.5 31.5C91.481 35.4873 96.4683 37.4873 103.433 49.3861C103.477 49.4602 103.53 49.5326 103.595 49.5884Z" fill="#F4DDA8"/>
<path d="M131.299 90.0195C132.949 90.1055 133.873 90.4767 134.933 91.1332C135.28 91.3481 135.449 91.7571 135.353 92.1537C132.454 104.114 117.675 120.711 113.5 122.5C121.312 111.759 127.693 101.495 130.317 90.7766C130.428 90.3231 130.832 89.9951 131.299 90.0195Z" fill="#F4DDA8"/>
<path d="M24.9257 85.0458C24.3829 85.1165 23.9929 85.2688 23.6063 85.5029C23.2311 85.7301 23.1006 86.2049 23.2538 86.6159C25.9885 93.9542 30.1525 101.122 35 105C28.9487 96.6213 26.7976 89.5426 25.9059 85.7812C25.7977 85.3246 25.3909 84.9852 24.9257 85.0458Z" fill="#F4DDA8"/>
<path d="M119.574 85.5458C120.117 85.6165 120.507 85.7688 120.894 86.0029C121.269 86.2301 121.399 86.7049 121.246 87.1159C118.511 94.4542 114.348 101.622 109.5 105.5C115.551 97.1213 117.702 90.0426 118.594 86.2812C118.702 85.8246 119.109 85.4852 119.574 85.5458Z" fill="#F4DDA8"/>
<path d="M39.5 94.5C37.6365 90.3071 36.4438 87.4165 35.6647 84.2102C35.5641 83.7965 35.0392 83.5655 34.6419 83.7188C34.1914 83.8927 34.152 84.3477 34.3445 84.7906C36.069 88.7587 36.6799 90.2698 39.5 94.5Z" fill="#F4DDA8"/>
<path d="M105 95C106.864 90.8071 108.056 87.9165 108.835 84.7102C108.936 84.2965 109.461 84.0655 109.858 84.2188C110.309 84.3927 110.348 84.8477 110.156 85.2906C108.431 89.2587 107.82 90.7698 105 95Z" fill="#F4DDA8"/>
<rect x="49" y="79" width="47" height="8" fill="#1A2C51"/>
<rect x="49" y="53" width="47" height="8" fill="#1A2C51"/>
<rect x="88" y="61" width="4" height="18" fill="#1A2C51"/>
<rect x="54" y="61" width="4" height="18" fill="#1A2C51"/>
<path d="M72.5 39C85.5 39 91.5 53 91.5 53H54.5C54.5 53 59.5 39 72.5 39Z" fill="#1A2C51"/>
<circle cx="73" cy="70" r="11" fill="#1A2C51"/>
<circle cx="73" cy="70" r="8" fill="#F4DDA8"/>
<circle cx="73" cy="70" r="6" fill="#F1F1F1"/>
<rect x="71" y="32" width="4" height="9" fill="#1A2C51"/>
<path d="M52 87H93.5L94 95L51 108L52 87Z" fill="#1A2C51"/>
<path d="M51 108L94 95L96.5 136.5L48 151.5L51 108Z" fill="#4FA7A0"/>
<path d="M66 168.5L66 154.789C66 154.601 66.0507 154.414 66.1591 154.261C68.7021 150.673 75.9769 150.445 79.9364 153.951C80.3151 154.286 80.5 154.782 80.5 155.288V169C86 166 91 164.5 98.5 163.5C98 154.5 96.5 136.5 96.5 136.5L48 151.5C48 151.5 47 159.5 47 165C53 165.5 58.5 166.5 66 168.5Z" fill="#1A2C51"/>
<path d="M28.622 190.287C29.6465 180.63 31.5575 174.828 33.925 167.725C33.9741 167.578 34.0564 167.441 34.1698 167.335C34.9186 166.636 35.3901 166.563 36.0815 167.118C36.3554 167.338 36.4465 167.714 36.3613 168.055C34.2273 176.594 33.6272 179.12 33.8799 184.15C33.9323 185.194 34.807 186 35.8521 186.003C51.3388 186.054 61.1934 186.759 67.4382 188.624C68.4248 188.919 68.209 190.109 67.1797 190.136C56.9789 190.404 42.6899 190.185 29.7102 191.384C29.0829 191.442 28.5555 190.914 28.622 190.287Z" fill="#4FA7A0"/>
<path d="M115.378 190.537C114.353 180.88 112.443 175.078 110.075 167.975C110.026 167.828 109.944 167.691 109.83 167.585C109.081 166.886 108.61 166.813 107.919 167.368C107.645 167.588 107.554 167.964 107.639 168.305C109.773 176.844 110.373 179.37 110.12 184.4C110.068 185.444 109.193 186.25 108.148 186.253C92.6612 186.304 82.8066 187.009 76.5618 188.874C75.5752 189.169 75.791 190.359 76.8203 190.386C87.0211 190.654 101.31 190.435 114.29 191.634C114.917 191.692 115.444 191.164 115.378 190.537Z" fill="#4FA7A0"/>
<path d="M37.4964 182.486C37.4244 181.651 37.4042 181.073 37.4357 180.382C37.4588 179.878 37.8731 179.485 38.3783 179.475C48.9325 179.273 61.9252 182.085 67.1598 184.282C68.7 184.929 68.1738 185.661 66.5444 185.294C54.5217 182.579 47.2197 182.947 37.4964 182.486Z" fill="#4FA7A0"/>
<path d="M106.504 182.736C106.576 181.901 106.596 181.323 106.564 180.632C106.541 180.128 106.127 179.735 105.622 179.725C95.0675 179.523 82.0748 182.335 76.8402 184.532C75.3 185.179 75.8262 185.911 77.4556 185.544C89.4783 182.829 96.7803 183.197 106.504 182.736Z" fill="#4FA7A0"/>
<path d="M39.0863 175.044C39.122 173.681 39.3269 173 40.5 173C47.7293 173 62.0164 176.859 67.3901 179.419C68.6067 179.999 68.1942 180.594 66.902 180.211C54.7577 176.615 49.7139 176.474 40.0342 176.043C39.5001 176.019 39.0722 175.578 39.0863 175.044Z" fill="#4FA7A0"/>
<path d="M104.914 175.294C104.878 173.931 104.673 173.25 103.5 173.25C96.2707 173.25 81.9836 177.109 76.6099 179.669C75.3933 180.249 75.8058 180.844 77.098 180.461C89.2423 176.865 94.2861 176.724 103.966 176.293C104.5 176.269 104.928 175.828 104.914 175.294Z" fill="#4FA7A0"/>
<path d="M40.2947 169.402C40.121 168.722 40.1736 168.042 40.6837 167.362C40.8661 167.119 41.1754 167.019 41.4773 167.055C52.9298 168.413 64.7288 172.61 67.4363 174.688C67.8875 175.035 67.5568 175.331 67.024 175.132C57.3347 171.509 51.7799 170.522 41.1361 170.029C40.7501 170.011 40.3904 169.776 40.2947 169.402Z" fill="#4FA7A0"/>
<path d="M103.705 169.652C103.879 168.972 103.826 168.292 103.316 167.612C103.134 167.369 102.825 167.269 102.523 167.305C91.0702 168.663 79.2712 172.86 76.5637 174.938C76.1125 175.285 76.4432 175.581 76.976 175.382C86.6653 171.759 92.2202 170.772 102.864 170.279C103.25 170.261 103.61 170.026 103.705 169.652Z" fill="#4FA7A0"/>
<path d="M20.6805 197.758C22.1107 188.093 23.5953 182.178 26.4281 172.252C26.4748 172.088 26.5603 171.933 26.692 171.826C27.3776 171.268 28.0632 171.37 28.7487 171.648C29.1946 171.829 29.4038 172.335 29.2755 172.799C26.9753 181.111 25.6032 190.14 25.1593 193.316C25.073 193.933 25.5683 194.47 26.1904 194.438C31.4909 194.167 53.3275 193.093 68 193C71.5 198 75 196.5 77.5 193C93.6373 193.102 110.139 193.469 119.393 194.384C119.986 194.443 120.501 193.976 120.485 193.38C120.281 185.753 118.011 181.249 116.124 172.11C116.047 171.739 116.183 171.332 116.536 171.194C117.182 170.942 117.891 171.039 118.574 171.309C118.849 171.418 119.04 171.67 119.109 171.958C121.466 181.765 123.38 186.79 125.278 197.694C125.391 198.347 124.852 198.928 124.192 198.86C114.749 197.886 96.6595 196.729 79.5 196.5C74 201 71 200.5 65.5 196.5C48.5913 196.744 45.1191 196.991 21.7634 198.897C21.1238 198.949 20.5866 198.393 20.6805 197.758Z" fill="#1A2C51"/>
<path d="M68 115.702C68 115.172 68.2032 114.654 68.6145 114.319C70.7732 112.56 73.2268 112.56 75.3855 114.319C75.7968 114.654 76 115.173 76 115.703C76 119.979 76 124.588 76 127.875C73.5 127.875 71 127.875 68 127.875C68 123.719 68 119.136 68 115.702Z" fill="white"/>
</svg>
